<?xml version="1.0" encoding="UTF-8" standalone="no"?>
<svg
   xmlns:dc="http://purl.org/dc/elements/1.1/"
   xmlns:cc="http://creativecommons.org/ns#"
   xmlns:rdf="http://www.w3.org/1999/02/22-rdf-syntax-ns#"
   xmlns:svg="http://www.w3.org/2000/svg"
   xmlns="http://www.w3.org/2000/svg"
   width="25mm"
   height="20mm"
   viewBox="0 0 1796.2057 1083.147"
   version="1.1"
   id="svg8">
  <defs
     id="defs2">
    <path
       d="m 284.9,70.6 c -6.4,-5.8 -16.2,-5.4 -22.1,1 -5.8,6.4 -5.4,16.2 1,22.1 0.5,0.5 1.1,0.9 1.7,1.3 L 286,71.7 c -0.4,-0.4 -0.7,-0.8 -1.1,-1.1 z"
       id="SVGID_29_" />
    <path
       d="M 102.1,85.2 C 100.5,76.4 89,71.6 77.6,77.8 l 2.9,10 4.6,14.9 2.1,6.8 c 8.6,-5.6 17.2,-12.2 14.9,-24.3 z"
       id="SVGID_31_" />
    <linearGradient
       id="SVGID_1_-2"
       gradientUnits="userSpaceOnUse"
       x1="45.867802"
       y1="-92.647797"
       x2="57.866699"
       y2="-39.647598"
       gradientTransform="matrix(1.1656,-0.0446,0.0446,1.1656,-41.2247,170.299)">
      <stop
         offset="0"
         style="stop-color:#1D2C5F"
         id="stop11098" />
      <stop
         offset="1"
         style="stop-color:#0071B9"
         id="stop11100" />
    </linearGradient>
    <linearGradient
       id="SVGID_2_-5"
       gradientUnits="userSpaceOnUse"
       x1="329.81339"
       y1="-113.081"
       x2="323.3139"
       y2="-90.080902"
       gradientTransform="matrix(1.1664,0,0,1.1664,-33.6702,166.171)">
      <stop
         offset="0"
         style="stop-color:#1D2C5F"
         id="stop11105" />
      <stop
         offset="1"
         style="stop-color:#0071B9"
         id="stop11107" />
    </linearGradient>
    <linearGradient
       id="SVGID_3_-5"
       gradientUnits="userSpaceOnUse"
       x1="264.06351"
       y1="-142.907"
       x2="250.06351"
       y2="-108.9071"
       gradientTransform="matrix(1.1664,0,0,1.1664,-29.2719,161.0437)">
      <stop
         offset="0"
         style="stop-color:#1D2C5F"
         id="stop11112" />
      <stop
         offset="1"
         style="stop-color:#0071B9"
         id="stop11114" />
    </linearGradient>
    <linearGradient
       id="SVGID_4_-8"
       gradientUnits="userSpaceOnUse"
       x1="438.58359"
       y1="-102.7302"
       x2="427.5838"
       y2="-72.230103"
       gradientTransform="matrix(1.1664,0,0,1.1664,-30.3412,167.4346)">
      <stop
         offset="0"
         style="stop-color:#1D2C5F"
         id="stop11119" />
      <stop
         offset="1"
         style="stop-color:#0071B9"
         id="stop11121" />
    </linearGradient>
    <linearGradient
       id="SVGID_5_-3"
       gradientUnits="userSpaceOnUse"
       x1="423.74249"
       y1="8.5670004"
       x2="421.24219"
       y2="-118.933"
       gradientTransform="matrix(1.1664,0,0,1.1664,-31.2159,167.7262)">
      <stop
         offset="0"
         style="stop-color:#1D2C5F"
         id="stop11126" />
      <stop
         offset="1"
         style="stop-color:#0071B9"
         id="stop11128" />
    </linearGradient>
    <linearGradient
       id="SVGID_6_-8"
       gradientUnits="userSpaceOnUse"
       x1="380.79431"
       y1="-71.2677"
       x2="418.79431"
       y2="-106.7679"
       gradientTransform="matrix(1.1664,0,0,1.1664,-30.3412,167.4346)">
      <stop
         offset="0"
         style="stop-color:#1D2C5F"
         id="stop11133" />
      <stop
         offset="1"
         style="stop-color:#0071B9"
         id="stop11135" />
    </linearGradient>
    <linearGradient
       id="SVGID_7_-4"
       gradientUnits="userSpaceOnUse"
       x1="242.9969"
       y1="12.1114"
       x2="240.4966"
       y2="-115.3886"
       gradientTransform="matrix(1.1664,0,0,1.1664,-36.8292,164.9561)">
      <stop
         offset="0"
         style="stop-color:#1D2C5F"
         id="stop11140" />
      <stop
         offset="1"
         style="stop-color:#0071B9"
         id="stop11142" />
    </linearGradient>
    <linearGradient
       id="SVGID_8_-0"
       gradientUnits="userSpaceOnUse"
       x1="410.73721"
       y1="8.8220997"
       x2="408.237"
       y2="-118.6779"
       gradientTransform="matrix(1.1664,0,0,1.1664,-30.8516,167.5804)">
      <stop
         offset="0"
         style="stop-color:#1D2C5F"
         id="stop11147" />
      <stop
         offset="1"
         style="stop-color:#0071B9"
         id="stop11149" />
    </linearGradient>
    <linearGradient
       id="SVGID_9_-6"
       gradientUnits="userSpaceOnUse"
       x1="393.54739"
       y1="-102.3971"
       x2="379.54761"
       y2="-79.397003"
       gradientTransform="matrix(1.1664,0.0097,-0.0097,1.1664,-31.262,163.7423)">
      <stop
         offset="0"
         style="stop-color:#1D2C5F"
         id="stop11154" />
      <stop
         offset="1"
         style="stop-color:#0071B9"
         id="stop11156" />
    </linearGradient>
    <linearGradient
       id="SVGID_10_"
       gradientUnits="userSpaceOnUse"
       x1="398.82501"
       y1="9.0556002"
       x2="396.3248"
       y2="-118.4443"
       gradientTransform="matrix(1.1664,0,0,1.1664,-31.2159,167.7262)">
      <stop
         offset="0"
         style="stop-color:#1D2C5F"
         id="stop11163" />
      <stop
         offset="1"
         style="stop-color:#0071B9"
         id="stop11165" />
    </linearGradient>
    <linearGradient
       id="SVGID_11_"
       gradientUnits="userSpaceOnUse"
       x1="356.02469"
       y1="4.2800002"
       x2="351.02399"
       y2="-116.72"
       gradientTransform="matrix(1.1664,0,0,1.1664,-35.2984,163.0607)">
      <stop
         offset="0"
         style="stop-color:#1D2C5F"
         id="stop11170" />
      <stop
         offset="1"
         style="stop-color:#0071B9"
         id="stop11172" />
    </linearGradient>
    <linearGradient
       id="SVGID_12_"
       gradientUnits="userSpaceOnUse"
       x1="336.54581"
       y1="10.2769"
       x2="334.04559"
       y2="-117.2231"
       gradientTransform="matrix(1.1664,0,0,1.1664,-35.0068,162.4774)">
      <stop
         offset="0"
         style="stop-color:#1D2C5F"
         id="stop11177" />
      <stop
         offset="1"
         style="stop-color:#0071B9"
         id="stop11179" />
    </linearGradient>
    <linearGradient
       id="SVGID_13_"
       gradientUnits="userSpaceOnUse"
       x1="326.46011"
       y1="10.4747"
       x2="323.95981"
       y2="-117.0253"
       gradientTransform="matrix(1.1664,0,0,1.1664,-35.1038,162.4774)">
      <stop
         offset="0"
         style="stop-color:#1D2C5F"
         id="stop11184" />
      <stop
         offset="1"
         style="stop-color:#0071B9"
         id="stop11186" />
    </linearGradient>
    <linearGradient
       id="SVGID_14_"
       gradientUnits="userSpaceOnUse"
       x1="304.40549"
       y1="6.4133"
       x2="299.40469"
       y2="-114.5867"
       gradientTransform="matrix(1.1664,0,0,1.1664,-34.9096,162.2831)">
      <stop
         offset="0"
         style="stop-color:#1D2C5F"
         id="stop11191" />
      <stop
         offset="1"
         style="stop-color:#0071B9"
         id="stop11193" />
    </linearGradient>
    <linearGradient
       id="SVGID_15_"
       gradientUnits="userSpaceOnUse"
       x1="288.14651"
       y1="-61.264702"
       x2="326.64651"
       y2="-64.764397"
       gradientTransform="matrix(1.1664,0,0,1.1664,-34.9096,162.2831)">
      <stop
         offset="0"
         style="stop-color:#1D2C5F"
         id="stop11198" />
      <stop
         offset="1"
         style="stop-color:#0071B9"
         id="stop11200" />
    </linearGradient>
    <linearGradient
       id="SVGID_16_"
       gradientUnits="userSpaceOnUse"
       x1="231.4673"
       y1="-90.891602"
       x2="293.46719"
       y2="-133.39169"
       gradientTransform="matrix(1.1664,0,0,1.1664,-29.2719,161.1167)">
      <stop
         offset="0"
         style="stop-color:#1D2C5F"
         id="stop11205" />
      <stop
         offset="1"
         style="stop-color:#0071B9"
         id="stop11207" />
    </linearGradient>
    <linearGradient
       id="SVGID_17_"
       gradientUnits="userSpaceOnUse"
       x1="237.2552"
       y1="12.224"
       x2="234.755"
       y2="-115.276"
       gradientTransform="matrix(1.1651,0.056,-0.056,1.1651,-37.6517,151.7298)">
      <stop
         offset="0"
         style="stop-color:#1D2C5F"
         id="stop11212" />
      <stop
         offset="1"
         style="stop-color:#0071B9"
         id="stop11214" />
    </linearGradient>
    <linearGradient
       id="SVGID_18_"
       gradientUnits="userSpaceOnUse"
       x1="212.4687"
       y1="-118.0039"
       x2="203.4686"
       y2="-97.503899"
       gradientTransform="matrix(1.1664,0,0,1.1664,-35.6386,164.9561)">
      <stop
         offset="0"
         style="stop-color:#1D2C5F"
         id="stop11219" />
      <stop
         offset="1"
         style="stop-color:#0071B9"
         id="stop11221" />
    </linearGradient>
    <linearGradient
       id="SVGID_19_"
       gradientUnits="userSpaceOnUse"
       x1="192.54379"
       y1="13.1007"
       x2="190.04359"
       y2="-114.3993"
       gradientTransform="matrix(1.1663,0.0182,-0.0182,1.1663,-37.2211,156.0918)">
      <stop
         offset="0"
         style="stop-color:#1D2C5F"
         id="stop11226" />
      <stop
         offset="1"
         style="stop-color:#0071B9"
         id="stop11228" />
    </linearGradient>
    <linearGradient
       id="SVGID_20_"
       gradientUnits="userSpaceOnUse"
       x1="186.38831"
       y1="-38.2314"
       x2="151.88831"
       y2="-30.7313"
       gradientTransform="matrix(1.1663,0.0182,-0.0182,1.1663,-37.2211,156.0918)">
      <stop
         offset="0"
         style="stop-color:#1D2C5F"
         id="stop11233" />
      <stop
         offset="1"
         style="stop-color:#0071B9"
         id="stop11235" />
    </linearGradient>
    <linearGradient
       id="SVGID_21_"
       gradientUnits="userSpaceOnUse"
       x1="160.54939"
       y1="-106.0139"
       x2="161.5489"
       y2="-71.513901"
       gradientTransform="matrix(1.1664,0,0,1.1664,-34.7152,164.397)">
      <stop
         offset="0"
         style="stop-color:#1D2C5F"
         id="stop11240" />
      <stop
         offset="1"
         style="stop-color:#0071B9"
         id="stop11242" />
    </linearGradient>
    <linearGradient
       id="SVGID_22_"
       gradientUnits="userSpaceOnUse"
       x1="111.8844"
       y1="14.6824"
       x2="109.3841"
       y2="-112.8176"
       gradientTransform="matrix(1.1656,-0.0446,0.0446,1.1656,-39.4506,169.74)">
      <stop
         offset="0"
         style="stop-color:#1D2C5F"
         id="stop11247" />
      <stop
         offset="1"
         style="stop-color:#0071B9"
         id="stop11249" />
    </linearGradient>
    <linearGradient
       id="SVGID_23_"
       gradientUnits="userSpaceOnUse"
       x1="84.999298"
       y1="-14.0923"
       x2="54"
       y2="-100.5926"
       gradientTransform="matrix(1.1656,-0.0446,0.0446,1.1656,-41.5892,170.5176)">
      <stop
         offset="0"
         style="stop-color:#1D2C5F"
         id="stop11254" />
      <stop
         offset="1"
         style="stop-color:#0071B9"
         id="stop11256" />
    </linearGradient>
    <linearGradient
       id="SVGID_24_"
       gradientUnits="userSpaceOnUse"
       x1="151.6541"
       y1="3.7060001"
       x2="127.1538"
       y2="-90.793999"
       gradientTransform="matrix(1.1524,-0.1803,0.1803,1.1524,-393.60358,728.16096)">
      <stop
         offset="0"
         style="stop-color:#1D2C5F"
         id="stop11261" />
      <stop
         offset="1"
         style="stop-color:#0071B9"
         id="stop11263" />
    </linearGradient>
    <linearGradient
       id="SVGID_25_"
       gradientUnits="userSpaceOnUse"
       x1="166.8589"
       y1="13.6044"
       x2="164.3587"
       y2="-113.8956"
       gradientTransform="matrix(1.1664,0,0,1.1664,-34.7152,164.397)">
      <stop
         offset="0"
         style="stop-color:#1D2C5F"
         id="stop11268" />
      <stop
         offset="1"
         style="stop-color:#0071B9"
         id="stop11270" />
    </linearGradient>
    <linearGradient
       id="SVGID_26_"
       gradientUnits="userSpaceOnUse"
       x1="66.1194"
       y1="15.5798"
       x2="63.619099"
       y2="-111.9201"
       gradientTransform="matrix(1.1664,0,0,1.1664,-44.2649,167.1918)">
      <stop
         offset="0"
         style="stop-color:#1D2C5F"
         id="stop11275" />
      <stop
         offset="1"
         style="stop-color:#0071B9"
         id="stop11277" />
    </linearGradient>
    <linearGradient
       id="SVGID_33_"
       gradientUnits="userSpaceOnUse"
       x1="116.1671"
       y1="-3.0797999"
       x2="114.7248"
       y2="-139.8633"
       gradientTransform="matrix(1.1655,-0.0468,0.0468,1.1655,-403.73428,707.68346)">
      <stop
         offset="0"
         style="stop-color:#3C5AA6"
         id="stop11398" />
      <stop
         offset="1"
         style="stop-color:#2A75BB"
         id="stop11400" />
    </linearGradient>
    <linearGradient
       id="SVGID_34_"
       gradientUnits="userSpaceOnUse"
       x1="266.7298"
       y1="-4.6673002"
       x2="265.28751"
       y2="-141.45081"
       gradientTransform="matrix(1.1074,-0.0346,0.0346,1.1074,-382.02678,702.67126)">
      <stop
         offset="0"
         style="stop-color:#3C5AA6"
         id="stop11405" />
      <stop
         offset="1"
         style="stop-color:#2A75BB"
         id="stop11407" />
    </linearGradient>
    <path
       id="SVGID_29_-8"
       d="m 284.9,70.6 c -6.4,-5.8 -16.2,-5.4 -22.1,1 -5.8,6.4 -5.4,16.2 1,22.1 0.5,0.5 1.1,0.9 1.7,1.3 L 286,71.7 c -0.4,-0.4 -0.7,-0.8 -1.1,-1.1 z" />
    <path
       id="SVGID_31_-4"
       d="M 102.1,85.2 C 100.5,76.4 89,71.6 77.6,77.8 l 2.9,10 4.6,14.9 2.1,6.8 c 8.6,-5.6 17.2,-12.2 14.9,-24.3 z" />
    <path
       d="m 284.9,70.6 c -6.4,-5.8 -16.2,-5.4 -22.1,1 -5.8,6.4 -5.4,16.2 1,22.1 0.5,0.5 1.1,0.9 1.7,1.3 L 286,71.7 c -0.4,-0.4 -0.7,-0.8 -1.1,-1.1 z"
       id="path11690-9" />
    <path
       d="M 102.1,85.2 C 100.5,76.4 89,71.6 77.6,77.8 l 2.9,10 4.6,14.9 2.1,6.8 c 8.6,-5.6 17.2,-12.2 14.9,-24.3 z"
       id="path11696-1" />
    <path
       id="SVGID_29_-9"
       d="m 284.9,70.6 c -6.4,-5.8 -16.2,-5.4 -22.1,1 -5.8,6.4 -5.4,16.2 1,22.1 0.5,0.5 1.1,0.9 1.7,1.3 L 286,71.7 c -0.4,-0.4 -0.7,-0.8 -1.1,-1.1 z" />
    <path
       id="SVGID_31_-5"
       d="M 102.1,85.2 C 100.5,76.4 89,71.6 77.6,77.8 l 2.9,10 4.6,14.9 2.1,6.8 c 8.6,-5.6 17.2,-12.2 14.9,-24.3 z" />
    <path
       d="m 284.9,70.6 c -6.4,-5.8 -16.2,-5.4 -22.1,1 -5.8,6.4 -5.4,16.2 1,22.1 0.5,0.5 1.1,0.9 1.7,1.3 L 286,71.7 c -0.4,-0.4 -0.7,-0.8 -1.1,-1.1 z"
       id="path11690-1" />
    <path
       d="M 102.1,85.2 C 100.5,76.4 89,71.6 77.6,77.8 l 2.9,10 4.6,14.9 2.1,6.8 c 8.6,-5.6 17.2,-12.2 14.9,-24.3 z"
       id="path11696-3" />
  </defs>
  <metadata
     id="metadata5">
    <rdf:RDF>
      <cc:Work
         rdf:about="">
        <dc:format>image/svg+xml</dc:format>
        <dc:type
           rdf:resource="http://purl.org/dc/dcmitype/StillImage" />
        <dc:title></dc:title>
      </cc:Work>
    </rdf:RDF>
  </metadata>
  <g
     id="layer1"
     transform="translate(32.627318,295.62458)">
    <path
       id="rect1191"
       style="fill:#0e3fa9;fill-opacity:1;stroke-width:310.638;paint-order:stroke markers fill"
       d="M -32.627318,-83.567288 6.0412519,215.82721 A 152.08791,143.43251 82.640652 0 1 151.53894,349.39733 152.08791,143.43251 82.640652 0 1 44.752707,515.55375 L 79.879079,787.52248 1721.7277,575.46802 v 0 l 23.3019,-2.99556 6.622,-30.77811 11.9268,-9.02043 -9.8503,-8.70292 -9.3786,-24.34833 8.4436,-16.67263 -17.5503,-53.83755 -12.644,-35.14788 -2.379,-37.7176 7.0179,-27.71219 -1.8145,-125.06377 -2.4138,-9.03897 5.5973,-9.76269 -5.5821,-23.90332 26.9919,-56.47354 -2.0588,-15.940565 -6.8637,-9.710485 0.4121,-11.274578 4.0725,-16.734844 -13.2927,-6.387731 -10.1862,-16.13708 0.2308,-36.8107804 -6.0752,-22.9042106 6.4823,-46.342216 -17.3921,-52.61165 -33.5394,-40.54395 -20.0155,-15.04607 -0.451,-23.96574 -8.2256,-9.07654 -12.9464,-60.14772 -14.6006,-2.96437 -6.346,-13.31858 z" />
    <path
       d="m 381.75283,290.24601 -7.58494,-58.72704 -32.39393,-24.24791 -88.48949,11.42894 28.77465,222.79005 88.4895,-11.42895 29.20119,-36.62599 -7.70534,-59.65927 -31.01904,-18.42321 z m -51.7078,-38.81243 6.10006,47.23023 -20.82105,2.68916 -6.10006,-47.23022 z m 11.51788,89.17814 6.42112,49.71608 -20.82105,2.68916 -6.42112,-49.71607 z"
       style="font-weight:500;font-size:65.5402px;line-height:1.25;font-family:'ITC Machine Std';-inkscape-font-specification:'ITC Machine Std Medium';letter-spacing:0px;word-spacing:0px;fill:#ffa903;fill-opacity:1;stroke-width:5.83149"
       id="path1130" />
    <path
       d="m 434.39479,195.30853 -50.52159,6.52517 28.77464,222.79004 96.1442,-12.41759 -5.41782,-41.94792 -45.62261,5.89244 z"
       style="font-weight:500;font-size:65.5402px;line-height:1.25;font-family:'ITC Machine Std';-inkscape-font-specification:'ITC Machine Std Medium';letter-spacing:0px;word-spacing:0px;fill:#ffa903;fill-opacity:1;stroke-width:5.83149"
       id="path1132" />
    <path
       d="m 612.54987,205.15322 -38.77341,-27.84665 -54.19603,6.99973 -29.20118,36.62599 20.4272,158.1592 37.54862,28.00485 56.33935,-7.27655 28.28265,-36.50735 z m -49.27758,16.15768 17.93902,138.89422 -21.12728,2.7287 -17.939,-138.89422 z"
       style="font-weight:500;font-size:65.5402px;line-height:1.25;font-family:'ITC Machine Std';-inkscape-font-specification:'ITC Machine Std Medium';letter-spacing:0px;word-spacing:0px;fill:#ffa903;fill-opacity:1;stroke-width:5.83149"
       id="path1134" />
    <path
       d="m 747.36049,187.74163 -37.54866,-28.00484 -55.11457,7.11837 -28.89498,36.58643 20.4272,158.15922 40.30436,27.64894 52.05264,-6.72291 29.20121,-36.62599 -8.10668,-62.76654 -49.29692,6.36699 6.86258,53.13404 -21.73963,2.8078 -17.93901,-138.89422 21.73962,-2.80779 5.61848,43.50149 49.29692,-6.36699 z"
       style="font-weight:500;font-size:65.5402px;line-height:1.25;font-family:'ITC Machine Std';-inkscape-font-specification:'ITC Machine Std Medium';letter-spacing:0px;word-spacing:0px;fill:#ffa903;fill-opacity:1;stroke-width:5.83149"
       id="path1136" />
    <path
       d="m 805.42969,147.38718 -50.52163,6.52516 28.77465,222.79005 50.52163,-6.52517 -12.28039,-95.08195 0.61239,-0.0791 49.02343,90.33637 54.80839,-7.07883 -65.8521,-112.1719 30.3412,-109.74811 -51.7464,6.68335 -20.78837,99.35297 -0.6124,0.0791 z"
       style="font-weight:500;font-size:65.5402px;line-height:1.25;font-family:'ITC Machine Std';-inkscape-font-specification:'ITC Machine Std Medium';letter-spacing:0px;word-spacing:0px;fill:#ffa903;fill-opacity:1;stroke-width:5.83149"
       id="path1138" />
    <path
       d="m 1028.8829,206.66534 -7.5849,-58.72704 -32.39499,-24.24778 -88.48975,11.42897 28.77466,222.79004 88.48978,-11.42897 29.2021,-36.62611 -7.7053,-59.65928 -31.0198,-18.42312 z m -51.70904,-38.81228 6.10007,47.23024 -20.8211,2.68916 -6.10008,-47.23023 z m 11.51789,89.17814 6.42113,49.71608 -20.82111,2.68917 -6.42112,-49.71608 z"
       style="font-weight:500;font-size:65.5402px;line-height:1.25;font-family:'ITC Machine Std';-inkscape-font-specification:'ITC Machine Std Medium';letter-spacing:0px;word-spacing:0px;fill:#ffa903;fill-opacity:1;stroke-width:5.83149"
       id="path1140" />
    <path
       d="m 1157.7235,101.88635 -50.5217,6.52518 23.3568,180.84213 -22.0457,2.84734 -23.3568,-180.84213 -50.5218,6.52517 24.601,190.47462 37.8549,27.96531 56.6455,-7.3161 28.5888,-36.54691 z"
       style="font-weight:500;font-size:65.5402px;line-height:1.25;font-family:'ITC Machine Std';-inkscape-font-specification:'ITC Machine Std Medium';letter-spacing:0px;word-spacing:0px;fill:#ffa903;fill-opacity:1;stroke-width:5.83149"
       id="path1142" />
    <path
       d="m 1202.8198,96.061895 -28.8951,36.586435 8.6285,66.80596 39.3858,27.76755 36.4919,-1.86995 6.0198,46.60881 -20.821,2.68917 -3.8126,-29.51888 -50.5218,6.52518 5.0567,39.15137 36.9364,28.08394 56.0331,-7.23701 28.8949,-36.58645 -8.7488,-67.73813 -38.7734,-27.84667 -37.1444,1.63829 -5.8593,-45.36585 20.8212,-2.68918 3.8527,29.8296 50.5216,-6.52517 -5.0967,-39.4621 -39.692,-27.728014 z"
       style="font-weight:500;font-size:65.5402px;line-height:1.25;font-family:'ITC Machine Std';-inkscape-font-specification:'ITC Machine Std Medium';letter-spacing:0px;word-spacing:0px;fill:#ffa903;fill-opacity:1;stroke-width:5.83149"
       id="path1144" />
    <path
       d="m 1409.4992,69.368029 -107.4735,13.880829 5.4179,41.947912 28.476,-3.67784 23.3568,180.84213 50.5216,-6.52517 -23.3568,-180.84213 28.4758,-3.67782 z"
       style="font-weight:500;font-size:65.5402px;line-height:1.25;font-family:'ITC Machine Std';-inkscape-font-specification:'ITC Machine Std Medium';letter-spacing:0px;word-spacing:0px;fill:#ffa903;fill-opacity:1;stroke-width:5.83149"
       id="path1146" />
    <path
       d="m 1513.6256,55.919488 -93.0824,12.022136 28.7747,222.790046 94.3071,-12.18032 -5.4178,-41.94792 -43.7855,5.65515 -7.1033,-54.99838 35.8245,-4.62696 -5.4178,-41.94791 -35.8245,4.62695 -5.4179,-41.94792 42.5607,-5.496957 z"
       style="font-weight:500;font-size:65.5402px;line-height:1.25;font-family:'ITC Machine Std';-inkscape-font-specification:'ITC Machine Std Medium';letter-spacing:0px;word-spacing:0px;fill:#ffa903;fill-opacity:1;stroke-width:5.83149"
       id="path1148" />
    <path
       d="m 1650.1387,71.14249 -38.1612,-27.92574 -86.6522,11.19165 28.7746,222.79005 50.5219,-6.52519 -11.4778,-88.86748 21.1271,-2.7287 11.4778,88.86748 48.9907,-6.32744 -11.4777,-88.86749 -28.2233,-18.46834 22.6449,-24.72243 z m -47.7466,15.959935 6.4612,50.026785 -21.1272,2.7287 -6.4612,-50.026783 z"
       style="font-weight:500;font-size:65.5402px;line-height:1.25;font-family:'ITC Machine Std';-inkscape-font-specification:'ITC Machine Std Medium';letter-spacing:0px;word-spacing:0px;fill:#ffa903;fill-opacity:1;stroke-width:5.83149"
       id="path1150" />
    <text
       xml:space="preserve"
       style="font-size:10.5833px;line-height:1.25;font-family:'Adobe Clean';-inkscape-font-specification:'Adobe Clean';fill:#00eae4;fill-opacity:1;stroke-width:0.264583"
       x="109.64964"
       y="322.64487"
       id="text27"><tspan
         id="tspan25"
         x="109.64964"
         y="322.64487"
         style="stroke-width:0.264583" /></text>
    <path
       id="path4556"
       style="fill:#ffa903;fill-opacity:1;stroke-width:3.22864"
       d="m 1640.9877,-229.06797 c -498.3999,75.09813 -998.0462,123.18878 -1499.98401,195.21315 l 93.81764,728.58563 C 759.89813,627.48812 1295.3093,557.36005 1744.7134,498.90562 l 8.0805,-15.9557 -0.4435,-1.36245 L 247.76993,677.28454 158.30173,-19.890941 1648.1188,-213.6716 l -5.0041,-5.52235 z" />
  </g>
</svg>
